<svg width="48" height="48" viewBox="0 0 48 48" fill="none" xmlns="http://www.w3.org/2000/svg">
<g id="Icons/Food">
<path id="Ellipse 1" d="M37 19C42.4572 20.1079 46 21.8954 46 23.912C46 27.2743 36.1503 30 24 30C11.8497 30 2 27.2743 2 23.912C2 22.4447 3.8758 21.0986 7 20.0474" stroke="#7EB693" stroke-width="2" stroke-linecap="round"/>
<path id="Vector 6" d="M9.03743 18.1145C8.63797 13.5103 11.5341 11.3103 13.0321 10.7858C16.5273 -0.788523 27.1619 7.7394 30.5087 12.7987C33.8555 17.8581 33.5047 18.1145 37 24.3731C22.0201 30.9151 9.53676 23.8698 9.03743 18.1145Z" stroke="#7EB693" stroke-width="2" stroke-linecap="round"/>
<path id="Vector 7" d="M9.09128 2C8.428 5.24786 11.0811 13.5949 27 21" stroke="#7EB693" stroke-width="2" stroke-linecap="round"/>
<path id="Ellipse 2" d="M46 23C46 38 36.1503 46 24 46C11.8497 46 2 38 2 23" stroke="#7EB693" stroke-width="2" stroke-linecap="round"/>
</g>
</svg>
