<svg width="47" height="46" viewBox="0 0 47 46" fill="none" xmlns="http://www.w3.org/2000/svg">
<g id="Group 5">
<path id="Rectangle 14" d="M41 29V37H1V19C1 14.5817 4.58172 11 9 11H28.5M33.5 17.5V26.5L38.5 22.5L44 26.5V17.5" stroke="#7EB693" stroke-width="2" stroke-linecap="round" stroke-linejoin="round"/>
<path id="Star 1" d="M37.7925 1.70816C38.1831 1.31717 38.8168 1.31717 39.2074 1.70816L40.1708 2.67248C40.3799 2.88184 40.6711 2.98781 40.9659 2.96187L42.3237 2.8424C42.8743 2.79396 43.3597 3.2013 43.4076 3.75189L43.5257 5.10985C43.5514 5.40467 43.7063 5.673 43.9488 5.84262L45.0658 6.6239C45.5186 6.94068 45.6287 7.56475 45.3115 8.01732L44.5291 9.1335C44.3592 9.37584 44.3054 9.68097 44.3821 9.96678L44.7356 11.2832C44.8789 11.817 44.562 12.3658 44.0281 12.5086L42.7113 12.8607C42.4254 12.9372 42.1881 13.1363 42.0631 13.4046L41.4877 14.6403C41.2544 15.1413 40.6589 15.358 40.1581 15.1242L38.923 14.5475C38.6549 14.4223 38.345 14.4223 38.0769 14.5475L36.8418 15.1242C36.341 15.358 35.7455 15.1413 35.5122 14.6403L34.9368 13.4046C34.8118 13.1363 34.5745 12.9372 34.2886 12.8607L32.9718 12.5086C32.4379 12.3658 32.121 11.817 32.2643 11.2832L32.6178 9.96678C32.6945 9.68096 32.6407 9.37584 32.4708 9.1335L31.6884 8.01732C31.3712 7.56475 31.4813 6.94068 31.9341 6.6239L33.0511 5.84262C33.2936 5.673 33.4485 5.40467 33.4742 5.10985L33.5923 3.75189C33.6402 3.2013 34.1256 2.79396 34.6762 2.8424L36.034 2.96187C36.3288 2.98781 36.62 2.88184 36.8291 2.67248L37.7925 1.70816Z" stroke="#7EB693" stroke-width="2" stroke-linecap="round"/>
<path id="Rectangle 15" d="M1 19.5C1 14.8056 4.80558 11 9.5 11V11C14.1944 11 18 14.8056 18 19.5V37H1V19.5Z" stroke="#7EB693" stroke-width="2" stroke-linecap="round"/>
<path id="Vector 8" d="M13.5 22H5.5" stroke="#7EB693" stroke-width="2" stroke-linecap="round"/>
<path id="Vector 9" d="M22 38V45" stroke="#7EB693" stroke-width="2" stroke-linecap="round"/>
<path id="Vector 10" d="M27 38V45" stroke="#7EB693" stroke-width="2" stroke-linecap="round"/>
</g>
</svg>
