<svg width="24" height="24" viewBox="0 0 24 24" fill="none" xmlns="http://www.w3.org/2000/svg">
<g id="Icons/Star">
<path id="Vector" d="M10.9794 0.791818C11.3115 -0.263939 12.6893 -0.263939 13.0203 0.791818L15.1432 7.54721C15.2909 8.02067 15.7017 8.33903 16.1631 8.33903H22.9199C23.9764 8.33903 24.4023 9.81484 23.5344 10.4673L18.1555 14.5094C17.7599 14.8066 17.5949 15.3519 17.7491 15.8458L19.8245 22.4501C20.1587 23.5169 19.0439 24.4287 18.189 23.7864L12.615 19.5972C12.2452 19.3195 11.7557 19.3195 11.3859 19.5972L5.81079 23.7864C4.9569 24.4287 3.84103 23.5169 4.17633 22.4501L6.25067 15.8458C6.40593 15.3519 6.23989 14.8066 5.84421 14.5094L0.465786 10.4673C-0.402443 9.81484 0.0236396 8.33903 1.08022 8.33903H7.83662C8.29807 8.33903 8.70884 8.02067 8.85762 7.54721L10.9794 0.791818Z" fill="#FFA858"/>
</g>
</svg>
