<svg width="16" height="16" viewBox="0 0 16 16" fill="none" xmlns="http://www.w3.org/2000/svg">
<g id="Icons/Star">
<path id="Vector" d="M7.31961 0.527879C7.54099 -0.17596 8.45956 -0.17596 8.68022 0.527879L10.0955 5.03147C10.1939 5.34711 10.4678 5.55935 10.7754 5.55935H15.2799C15.9843 5.55935 16.2682 6.54322 15.6896 6.97821L12.1037 9.67292C11.8399 9.87106 11.7299 10.2346 11.8327 10.5638L13.2163 14.9667C13.4392 15.6779 12.6959 16.2858 12.126 15.8576L8.40997 13.0648C8.16343 12.8796 7.83712 12.8796 7.59058 13.0648L3.87386 15.8576C3.3046 16.2858 2.56068 15.6779 2.78422 14.9667L4.16712 10.5638C4.27062 10.2346 4.15993 9.87106 3.89614 9.67292L0.310524 6.97821C-0.268295 6.54322 0.0157597 5.55935 0.720147 5.55935H5.22442C5.53205 5.55935 5.80589 5.34711 5.90508 5.03147L7.31961 0.527879Z" fill="#FFA858"/>
</g>
</svg>
