<svg width="199" height="56" viewBox="0 0 199 56" fill="none" xmlns="http://www.w3.org/2000/svg">
<g id="Logo" clip-path="url(#clip0_10_592)">
<path id="Vector" d="M69.7641 27.2192V28.4995C69.7641 30.5529 69.4883 32.396 68.9367 34.0288C68.385 35.6616 67.6065 37.0532 66.6013 38.2036C65.5961 39.3416 64.3947 40.2137 62.9971 40.8198C61.6119 41.4259 60.0734 41.729 58.3817 41.729C56.7021 41.729 55.1636 41.4259 53.7662 40.8198C52.3809 40.2137 51.1794 39.3416 50.1619 38.2036C49.1444 37.0532 48.3538 35.6616 47.7899 34.0288C47.2381 32.396 46.9623 30.5529 46.9623 28.4995V27.2192C46.9623 25.1535 47.2381 23.3104 47.7899 21.6899C48.3415 20.0571 49.1199 18.6655 50.1252 17.5151C51.1427 16.3647 52.3441 15.4865 53.7293 14.8804C55.1269 14.2743 56.6654 13.9712 58.3449 13.9712C60.0366 13.9712 61.5751 14.2743 62.9604 14.8804C64.358 15.4865 65.5593 16.3647 66.5645 17.5151C67.582 18.6655 68.3666 20.0571 68.9182 21.6899C69.4821 23.3104 69.7641 25.1535 69.7641 27.2192ZM64.1924 28.4995V27.1821C64.1924 25.7472 64.0637 24.4855 63.8062 23.397C63.5488 22.3084 63.1688 21.3931 62.6661 20.6509C62.1636 19.9087 61.5506 19.3521 60.8274 18.981C60.104 18.5975 59.2766 18.4058 58.3449 18.4058C57.4132 18.4058 56.5857 18.5975 55.8624 18.981C55.1513 19.3521 54.5445 19.9087 54.042 20.6509C53.5516 21.3931 53.1777 22.3084 52.9202 23.397C52.6628 24.4855 52.5341 25.7472 52.5341 27.1821V28.4995C52.5341 29.922 52.6628 31.1838 52.9202 32.2847C53.1777 33.3732 53.5577 34.2948 54.0603 35.0493C54.563 35.7915 55.1759 36.3543 55.8992 36.7378C56.6225 37.1213 57.45 37.313 58.3817 37.313C59.3133 37.313 60.1408 37.1213 60.8641 36.7378C61.5874 36.3543 62.1942 35.7915 62.6846 35.0493C63.1749 34.2948 63.5488 33.3732 63.8062 32.2847C64.0637 31.1838 64.1924 29.922 64.1924 28.4995ZM78.7009 25.6606V41.3579H73.4051V21.2817H78.3884L78.7009 25.6606ZM84.6956 21.1519L84.6037 26.106C84.3462 26.0688 84.0337 26.0379 83.6659 26.0132C83.3104 25.9761 82.9855 25.9575 82.6913 25.9575C81.9434 25.9575 81.2937 26.0565 80.7421 26.2544C80.2027 26.4399 79.7491 26.7183 79.3813 27.0894C79.0258 27.4604 78.7562 27.9119 78.5722 28.4438C78.4006 28.9757 78.3025 29.5819 78.2781 30.2622L77.2115 29.9282C77.2115 28.6294 77.3402 27.4357 77.5976 26.3472C77.8551 25.2463 78.229 24.2876 78.7194 23.4712C79.2219 22.6548 79.8349 22.0239 80.5582 21.5786C81.2815 21.1333 82.109 20.9106 83.0406 20.9106C83.3349 20.9106 83.6353 20.9354 83.9417 20.9849C84.2481 21.022 84.4995 21.0776 84.6956 21.1519ZM99.4246 21.2817H104.224V40.6899C104.224 42.5207 103.82 44.0731 103.01 45.3472C102.213 46.6336 101.098 47.6047 99.6634 48.2603C98.2296 48.9282 96.5623 49.2622 94.6622 49.2622C93.8286 49.2622 92.9459 49.1509 92.0142 48.9282C91.0949 48.7056 90.2121 48.3592 89.3663 47.8892C88.5327 47.4191 87.8339 46.8254 87.27 46.1079L89.6053 42.9536C90.2183 43.6711 90.9293 44.2277 91.7384 44.6235C92.5475 45.0317 93.4424 45.2358 94.4232 45.2358C95.3793 45.2358 96.1884 45.0565 96.8504 44.6978C97.5125 44.3514 98.0212 43.8381 98.3767 43.1577C98.7321 42.4897 98.9099 41.6795 98.9099 40.7271V25.9204L99.4246 21.2817ZM86.0379 31.561V31.1714C86.0379 29.6375 86.2219 28.2459 86.5897 26.9966C86.9696 25.7349 87.5029 24.6525 88.1894 23.7495C88.8882 22.8465 89.734 22.1476 90.7271 21.6528C91.72 21.158 92.8418 20.9106 94.0922 20.9106C95.4161 20.9106 96.5256 21.158 97.4205 21.6528C98.3154 22.1476 99.051 22.8527 99.6268 23.7681C100.204 24.6711 100.651 25.741 100.97 26.978C101.301 28.2026 101.558 29.5448 101.742 31.0044V31.8579C101.558 33.2557 101.282 34.5545 100.914 35.7544C100.546 36.9543 100.062 38.0057 99.4613 38.9087C98.8609 39.7993 98.1131 40.492 97.2182 40.9868C96.3356 41.4816 95.2813 41.729 94.0554 41.729C92.8295 41.729 91.72 41.4754 90.7271 40.9683C89.7463 40.4611 88.9066 39.7498 88.2078 38.8345C87.5091 37.9191 86.9696 36.8429 86.5897 35.606C86.2219 34.369 86.0379 33.0207 86.0379 31.561ZM91.3339 31.1714V31.561C91.3339 32.3898 91.4136 33.1629 91.5729 33.8804C91.7323 34.5978 91.9775 35.2349 92.3085 35.7915C92.6517 36.3358 93.0747 36.7625 93.5773 37.0718C94.0922 37.3687 94.699 37.5171 95.3978 37.5171C96.3662 37.5171 97.1569 37.313 97.7698 36.9048C98.3828 36.4842 98.8425 35.909 99.1491 35.1792C99.4553 34.4494 99.6337 33.6082 99.6823 32.6558V30.2251C99.6575 29.4458 99.5534 28.7469 99.3701 28.1284C99.1857 27.4976 98.9284 26.9595 98.5974 26.5142C98.2663 26.0688 97.8373 25.7225 97.3102 25.4751C96.7831 25.2277 96.1578 25.104 95.4345 25.104C94.7358 25.104 94.1289 25.2648 93.6141 25.5864C93.1114 25.8957 92.6885 26.3224 92.3453 26.8667C92.0142 27.411 91.7629 28.0542 91.5913 28.7964C91.4197 29.5262 91.3339 30.3179 91.3339 31.1714ZM119.082 36.8306V27.8872C119.082 27.244 118.978 26.6935 118.77 26.2358C118.561 25.7658 118.237 25.4009 117.795 25.1411C117.365 24.8813 116.809 24.7515 116.122 24.7515C115.533 24.7515 115.025 24.8566 114.595 25.0669C114.166 25.2648 113.835 25.5555 113.602 25.939C113.37 26.3101 113.253 26.7492 113.253 27.2563H107.957C107.957 26.4028 108.154 25.5926 108.545 24.8257C108.938 24.0588 109.507 23.3846 110.256 22.8032C111.004 22.2095 111.892 21.7456 112.922 21.4116C113.964 21.0776 115.129 20.9106 116.416 20.9106C117.96 20.9106 119.334 21.1704 120.535 21.6899C121.736 22.2095 122.68 22.9888 123.366 24.0278C124.066 25.0669 124.415 26.3657 124.415 27.9243V36.5151C124.415 37.616 124.482 38.519 124.617 39.2241C124.752 39.9168 124.948 40.5229 125.206 41.0425V41.3579H119.855C119.597 40.8136 119.401 40.1333 119.266 39.3169C119.143 38.4881 119.082 37.6593 119.082 36.8306ZM119.781 29.1304L119.817 32.1548H116.857C116.158 32.1548 115.552 32.2352 115.037 32.396C114.522 32.5568 114.099 32.7856 113.768 33.0825C113.437 33.367 113.192 33.701 113.033 34.0845C112.885 34.4679 112.812 34.8885 112.812 35.3462C112.812 35.8039 112.916 36.2183 113.124 36.5894C113.333 36.9481 113.633 37.2326 114.026 37.4429C114.417 37.6408 114.877 37.7397 115.404 37.7397C116.201 37.7397 116.894 37.5789 117.482 37.2573C118.071 36.9357 118.524 36.5399 118.843 36.0698C119.174 35.5998 119.346 35.1545 119.358 34.7339L120.756 36.9976C120.56 37.5047 120.29 38.0304 119.946 38.5747C119.615 39.119 119.193 39.6323 118.678 40.1147C118.162 40.5848 117.544 40.9744 116.82 41.2837C116.097 41.5806 115.239 41.729 114.246 41.729C112.983 41.729 111.837 41.4754 110.808 40.9683C109.79 40.4487 108.98 39.7375 108.38 38.8345C107.792 37.9191 107.498 36.88 107.498 35.7173C107.498 34.6659 107.694 33.7319 108.085 32.9155C108.478 32.0991 109.055 31.4126 109.815 30.856C110.587 30.2869 111.549 29.8602 112.702 29.5757C113.853 29.2788 115.19 29.1304 116.71 29.1304H119.781ZM133.683 25.5679V41.3579H128.387V21.2817H133.352L133.683 25.5679ZM132.91 30.6147H131.476C131.476 29.1304 131.666 27.7944 132.046 26.6069C132.426 25.4071 132.96 24.3866 133.646 23.5454C134.332 22.6919 135.148 22.0425 136.091 21.5972C137.048 21.1395 138.114 20.9106 139.291 20.9106C140.223 20.9106 141.075 21.0467 141.847 21.3188C142.619 21.591 143.281 22.0239 143.833 22.6177C144.397 23.2114 144.826 23.9969 145.121 24.9741C145.427 25.9513 145.581 27.145 145.581 28.5552V41.3579H140.248V28.5366C140.248 27.646 140.125 26.9533 139.88 26.4585C139.634 25.9637 139.273 25.6174 138.795 25.4194C138.329 25.2091 137.752 25.104 137.066 25.104C136.355 25.104 135.736 25.2463 135.209 25.5308C134.694 25.8153 134.265 26.2111 133.922 26.7183C133.591 27.2131 133.339 27.7944 133.168 28.4624C132.996 29.1304 132.91 29.8478 132.91 30.6147ZM155.198 21.2817V41.3579H149.883V21.2817H155.198ZM149.552 16.0493C149.552 15.27 149.821 14.6268 150.361 14.1196C150.9 13.6125 151.624 13.3589 152.531 13.3589C153.426 13.3589 154.143 13.6125 154.682 14.1196C155.234 14.6268 155.51 15.27 155.51 16.0493C155.51 16.8286 155.234 17.4718 154.682 17.979C154.143 18.4862 153.426 18.7397 152.531 18.7397C151.624 18.7397 150.9 18.4862 150.361 17.979C149.821 17.4718 149.552 16.8286 149.552 16.0493ZM167.794 37.5542C168.443 37.5542 169.02 37.4305 169.522 37.1831C170.025 36.9233 170.417 36.5646 170.699 36.1069C170.993 35.6369 171.146 35.0864 171.158 34.4556H176.141C176.129 35.8657 175.756 37.1213 175.02 38.2222C174.284 39.3107 173.298 40.1704 172.059 40.8013C170.821 41.4198 169.436 41.729 167.904 41.729C166.359 41.729 165.011 41.4692 163.858 40.9497C162.718 40.4302 161.768 39.7127 161.008 38.7974C160.248 37.8696 159.678 36.7935 159.298 35.5688C158.918 34.3319 158.728 33.0083 158.728 31.5981V31.0601C158.728 29.6375 158.918 28.314 159.298 27.0894C159.678 25.8524 160.248 24.7762 161.008 23.8608C161.768 22.9331 162.718 22.2095 163.858 21.6899C164.998 21.1704 166.335 20.9106 167.867 20.9106C169.497 20.9106 170.925 21.2261 172.151 21.8569C173.389 22.4878 174.358 23.3908 175.057 24.5659C175.768 25.7287 176.129 27.1079 176.141 28.7036H171.158C171.146 28.0356 171.005 27.4295 170.735 26.8853C170.479 26.341 170.098 25.908 169.596 25.5864C169.105 25.2524 168.498 25.0854 167.775 25.0854C167.003 25.0854 166.372 25.2524 165.881 25.5864C165.391 25.908 165.011 26.3534 164.74 26.9224C164.471 27.479 164.282 28.116 164.171 28.8335C164.072 29.5386 164.024 30.2808 164.024 31.0601V31.5981C164.024 32.3774 164.072 33.1258 164.171 33.8433C164.269 34.5607 164.453 35.1978 164.723 35.7544C165.004 36.311 165.391 36.7502 165.881 37.0718C166.372 37.3934 167.009 37.5542 167.794 37.5542ZM184.509 12.8394V41.3579H179.213V12.8394H184.509ZM197.049 21.2817L188.407 31.2271L183.773 35.9585L181.842 32.0991L185.52 27.3862L190.687 21.2817H197.049ZM191.551 41.3579L185.667 32.0806L189.326 28.8521L197.656 41.3579H191.551Z" fill="#274C5B"/>
<path id="Vector_2" d="M1.83411 41.9263H19.1182H36.4023" stroke="#7EB693" stroke-width="2" stroke-miterlimit="10"/>
<path id="Vector_3" d="M5.73914 48.3579H19.1182H32.4973" stroke="#7EB693" stroke-width="2" stroke-miterlimit="10"/>
<path id="Vector_4" d="M18.6227 1.35791V8.35791V15.3579" stroke="#7EB693" stroke-width="2" stroke-miterlimit="10"/>
<path id="Vector_5" d="M18.6967 14.6421V41.0737" stroke="#7EB693" stroke-width="2" stroke-miterlimit="10"/>
<path id="Vector_6" d="M29.6573 4.41064L18.6967 15.4949" stroke="#7EB693" stroke-width="2" stroke-miterlimit="10"/>
<path id="Vector_7" d="M33.8729 8.67383L18.6967 24.0212" stroke="#7EB693" stroke-width="2" stroke-miterlimit="10"/>
<path id="Vector_8" d="M36.4024 15.4946L18.6967 32.5473" stroke="#7EB693" stroke-width="2" stroke-miterlimit="10"/>
<path id="Vector_9" d="M37.2454 23.1685L18.6967 41.9264" stroke="#7EB693" stroke-width="2" stroke-miterlimit="10"/>
<path id="Vector_10" d="M37.2456 31.6948L27.128 41.9264" stroke="#7EB693" stroke-width="2" stroke-miterlimit="10"/>
<path id="Vector_11" d="M0.991028 31.6948L11.1086 41.9264" stroke="#7EB693" stroke-width="2" stroke-miterlimit="10"/>
<path id="Vector_12" d="M8.57916 4.41064L18.6967 15.4949" stroke="#7EB693" stroke-width="2" stroke-miterlimit="10"/>
<path id="Vector_13" d="M4.36353 8.67383L18.6967 24.0212" stroke="#7EB693" stroke-width="2" stroke-miterlimit="10"/>
<path id="Vector_14" d="M1.83411 14.6421L18.6966 32.5474" stroke="#7EB693" stroke-width="2" stroke-miterlimit="10"/>
<path id="Vector_15" d="M0.991028 22.3159L18.6967 41.0738" stroke="#7EB693" stroke-width="2" stroke-miterlimit="10"/>
<path id="Vector_16" d="M19.1182 54.7158C9.10787 54.7158 0.991028 46.2635 0.991028 35.8351V19.8806C0.991028 9.45419 9.10787 1 19.1182 1C29.1305 1 37.2455 9.45419 37.2455 19.8806V35.8351C37.2473 46.2635 29.1305 54.7158 19.1182 54.7158Z" stroke="#7EB693" stroke-width="2" stroke-miterlimit="10"/>
</g>
<defs>
<clipPath id="clip0_10_592">
<rect width="198.209" height="56" fill="white"/>
</clipPath>
</defs>
</svg>
